<?xml version="1.0" encoding="UTF-8" standalone="no"?>
<svg
   version="1.1"
   style="display:block"
   viewBox="0 0 2049.8157 377.64536"
   width="1024.9078"
   height="188.82268"
   id="svg50"
   sodipodi:docname="logo.svg"
   inkscape:version="1.4 (e7c3feb1, 2024-10-09)"
   xmlns:inkscape="http://www.inkscape.org/namespaces/inkscape"
   xmlns:sodipodi="http://sodipodi.sourceforge.net/DTD/sodipodi-0.dtd"
   xmlns="http://www.w3.org/2000/svg"
   xmlns:svg="http://www.w3.org/2000/svg">
  <defs
     id="defs50" />
  <sodipodi:namedview
     id="namedview50"
     pagecolor="#ffffff"
     bordercolor="#000000"
     borderopacity="0.25"
     inkscape:showpageshadow="2"
     inkscape:pageopacity="0.0"
     inkscape:pagecheckerboard="0"
     inkscape:deskcolor="#d1d1d1"
     inkscape:zoom="1.1015625"
     inkscape:cx="512"
     inkscape:cy="58.099291"
     inkscape:window-width="1992"
     inkscape:window-height="1305"
     inkscape:window-x="639"
     inkscape:window-y="61"
     inkscape:window-maximized="0"
     inkscape:current-layer="svg50">
    <inkscape:page
       x="0"
       y="0"
       width="2049.8157"
       height="377.64536"
       id="page50"
       margin="753.47998 0 911.44"
       bleed="0" />
  </sodipodi:namedview>
  <path
     id="path12-3"
     style="display:block;fill:#5a4b4d;fill-opacity:1;stroke-width:0.602619"
     d="m 1260.6038,74.511338 c -3.0869,-0.0745 -5.9879,1.15213 -8.7549,2.37839 -5.4521,2.4703 -10.2144,6.63128 -13.005,11.96615 -2.7674,5.13611 -3.7857,11.05044 -3.7015,16.839542 -0.011,5.03598 0.254,10.0672 0.4694,15.09714 1.1628,23.91147 3.933,47.70374 5.6682,71.57419 0.5136,7.49158 0.9232,15.09201 1.3923,22.6257 0.937,15.42758 1.8638,30.86039 3.3467,46.24689 0.428,4.1624 0.8926,8.3343 1.7956,12.4244 1.1785,4.7098 3.9444,9.0573 7.9108,11.8973 4.2308,3.1023 9.5923,4.462 14.7992,4.1568 7.2976,-0.3555 14.5198,-3.3819 19.6428,-8.6356 3.4469,-3.5596 5.824,-8.1045 6.9046,-12.9325 1.8448,-7.3371 1.7841,-14.974 1.4807,-22.4818 -0.595,-14.98873 -1.2309,-29.97609 -1.9012,-44.96152 -0.1837,-4.0891 -0.4921,-8.1723 -0.6366,-12.26295 -0.032,-1.14167 -0.039,-2.28409 -0.01,-3.42583 0.011,-0.19181 0.022,-0.68446 0.043,-0.99516 0.1821,-4.53315 1.386,-8.96531 3.096,-13.14825 1.9027,-4.78048 4.087,-9.44926 6.4947,-13.99578 3.0632,-5.70425 6.5756,-11.21557 10.9229,-16.03384 2.487,-2.7135 5.2889,-5.22802 8.6146,-6.86474 1.8954,3.51655 3.6559,7.15127 6.21,10.25459 2.9985,3.77223 7.1259,6.69904 11.7966,7.97339 5.1317,1.45179 10.7145,0.89426 15.6163,-1.11985 4.703,-1.93061 8.6407,-5.54273 11.1364,-9.95508 3.2023,-5.58595 4.2309,-12.23338 3.5784,-18.58985 -0.4613,-4.55335 -1.8731,-8.98495 -3.9977,-13.03179 -5.62,-10.994822 -15.2476,-19.950922 -26.7688,-24.467072 -8.0466,-3.1804 -16.9532,-3.93751 -25.474,-2.58653 -10.2394,1.60679 -19.8576,6.20706 -28.0537,12.47475 -0.6682,0.51091 -1.3287,1.03173 -1.9802,1.56389 -1.0055,-4.71074 -2.8575,-9.31857 -5.9259,-13.07412 -2.8139,-3.50714 -6.6543,-6.17357 -10.935,-7.5571 -3.1445,-1.03382 -6.4769,-1.41635 -9.7779,-1.35376 z" />
  <path
     id="path15-0"
     style="display:block;fill:#5a4b4d;fill-opacity:1;stroke-width:0.602619"
     d="m 1161.0223,87.930188 c -8.1052,0.60581 -16.2783,1.99806 -23.7296,5.36734 -11.3279,5.08779 -20.5995,14.745332 -24.902,26.427702 -0.8529,2.29089 -1.5405,4.64104 -2.1061,7.01851 -6.4533,4.29731 -11.908,9.99893 -16.2146,16.42753 -6.1914,9.15444 -10.3585,19.5384 -13.241,30.16852 -4.1655,15.48231 -5.3131,31.8253 -2.9256,47.69855 1.9858,12.97813 6.6257,25.6933 14.4098,36.337 8.0555,11.0051 19.3619,19.626 32.1771,24.3247 14.9664,5.5212 31.7792,5.9588 46.9776,1.0762 8.1452,-2.5799 15.8023,-6.6323 22.5951,-11.8066 10.0468,-7.6118 18.3321,-17.398 24.8052,-28.1783 7.6281,-12.7444 12.7482,-26.96444 15.1558,-41.61396 2.2802,-14.0664 2.0632,-28.52675 -0.5506,-42.53135 -2.862,-15.21729 -8.7405,-30.01387 -18.0896,-42.42952 -6.6952,-8.89193 -15.2086,-16.530112 -25.1718,-21.577002 -7.0118,-3.58138 -14.7152,-5.80942 -22.5645,-6.46045 -2.2018,-0.20071 -4.4146,-0.27791 -6.6252,-0.24887 z m 5.3364,54.897102 c 4.7731,2.65704 8.3745,7.01779 10.9544,11.7649 3.3824,6.26346 5.1148,13.30899 5.7578,20.36587 1.2342,14.01287 -2.3297,28.32292 -9.6155,40.32106 -3.248,5.30594 -7.3658,10.2392 -12.6864,13.56482 -2.9535,1.84521 -6.3467,2.99285 -9.8278,3.21723 -3.5156,0.28728 -7.1861,-0.1098 -10.3608,-1.72829 -3.337,-1.88185 -5.6318,-5.15142 -7.2244,-8.55947 -2.3997,-5.11152 -3.5252,-10.73937 -3.901,-16.34841 -0.5151,-8.7295 1.2599,-17.45659 4.2181,-25.63933 2.2505,-6.28571 5.1777,-12.30738 8.3832,-18.15598 4.1253,-0.11896 8.339,-0.49642 12.1695,-2.14745 3.2984,-1.37373 6.3851,-3.46662 8.5113,-6.37363 2.0695,-3.07187 3.0901,-6.74604 3.378,-10.41196 0.081,0.0436 0.1624,0.0871 0.2436,0.13064 z" />
  <path
     id="path17-6"
     style="display:block;fill:#5a4b4d;fill-opacity:1;stroke-width:0.602619"
     d="m 1412.5836,79.816028 c -2.6875,0.0158 -5.4371,0.4195 -7.831,1.70577 -4.8367,2.11131 -9.5067,4.96125 -12.8414,9.12754 -3.6781,4.49682 -5.7085,10.027702 -7.613,15.442642 -3.9651,11.4799 -6.4739,23.39162 -9.2712,35.17973 -5.4399,23.60518 -10.3264,47.33837 -14.5923,71.1839 -0.2103,1.12781 -0.434,2.35142 -0.6508,3.47801 -0.4815,2.50907 -0.96,4.93623 -1.4687,7.44728 -1.8433,9.17193 -3.7596,18.38564 -4.1755,27.75714 -0.1516,3.1086 -0.043,6.2445 0.597,9.2983 1.2073,6.062 4.1921,11.8997 8.9506,15.9294 3.9106,3.3088 8.9405,5.2992 14.0341,5.5814 7.5129,0.6056 15.3416,-1.6878 21.0226,-6.7178 4.3404,-3.7657 7.3379,-8.8604 9.2658,-14.2274 1.5886,-4.3378 2.7859,-8.8049 4.2686,-13.1785 5.3727,-16.70233 11.2072,-33.30042 18.6497,-49.20806 3.0696,-6.55891 6.4602,-13.08586 10.1608,-19.35852 0.7021,-1.19012 1.4349,-2.4017 2.1337,-3.53125 1.7,-2.75085 3.4695,-5.45896 5.3134,-8.11564 0.2003,2.48793 0.3771,4.93794 0.5389,7.40709 0.1298,2.11811 0.269,4.31693 0.3861,6.38486 0.3102,6.1937 0.5976,12.45613 0.7557,18.68588 0.06,2.4266 0.099,4.9562 0.026,7.42231 -0.2727,9.76897 -0.9572,19.59582 -0.3439,29.38794 0.2784,4.43039 0.9126,8.95629 2.916,12.97059 2.5618,5.0801 7.0998,9.0155 12.2994,11.2386 5.9044,2.5768 12.6799,3.3173 18.9423,1.6894 5.7765,-1.4616 10.9545,-4.991 14.5786,-9.7022 3.6309,-4.7401 6.1515,-10.1996 8.4819,-15.66388 1.6846,-3.96541 3.3663,-7.93984 5.4121,-11.73615 5.4549,-10.38576 11.2507,-20.60856 17.7798,-30.36165 0.2055,-0.29716 0.5188,-0.76493 0.7655,-1.12753 2.995,-4.40267 6.1496,-8.71757 9.758,-12.64206 0.694,2.28142 1.2495,4.60316 1.7125,6.94188 0.039,0.22148 0.1353,0.71083 0.1963,1.03487 0.7602,4.14959 1.3091,8.33676 1.6975,12.53698 0.018,0.23707 0.061,0.72098 0.089,1.05253 0.2308,2.64417 0.3879,5.29418 0.5068,7.94558 0.018,0.40473 0.039,1.00373 0.059,1.48305 0.049,1.4047 0.099,2.97 0.1223,4.37097 0.087,4.75381 0.042,9.50955 -0.1004,14.26187 -0.015,0.33929 -0.033,0.88346 -0.049,1.30132 -0.266,7.23912 -0.7547,14.47242 -1.5604,21.67232 -0.129,1.1466 -0.2728,2.4141 -0.4652,3.5997 -0.8819,5.4117 -2.3336,10.7154 -3.1209,16.1447 -0.4743,3.233 -0.8142,6.5126 -0.6072,9.782 0.301,4.1789 1.7444,8.2192 3.8847,11.8026 0.9355,1.658 1.9239,3.2855 2.8886,4.9267 5.143,3.3871 10.841,5.9452 16.8124,7.4579 2.7856,0.5897 5.6165,-0.1407 8.2758,-0.9578 5.2159,-1.4609 10.3182,-3.8695 14.1343,-7.7971 4.0695,-4.1231 6.585,-9.4923 8.3719,-14.9367 2.7402,-8.2025 3.9969,-16.8068 4.8961,-25.3803 1.4229,-14.266 1.4523,-28.63443 0.8964,-42.94843 -0.5849,-14.01659 -1.8771,-28.01467 -4.1441,-41.86268 -1.7748,-10.50838 -4.3411,-21.01849 -9.1805,-30.57463 -2.8557,-5.63865 -6.5444,-10.92892 -11.3248,-15.10583 -4.5169,-4.00286 -10.0416,-6.84471 -15.9206,-8.20651 -6.8618,-1.62961 -14.0868,-1.3487 -20.9154,0.30714 -9.928,2.36295 -19.0785,7.40112 -26.9534,13.82235 -3.9202,3.19461 -7.5507,6.73432 -10.9426,10.48224 -1.4508,-9.44214 -3.8016,-18.85295 -8.1141,-27.42384 -3.4562,-6.84946 -8.2723,-13.09792 -14.445,-17.708042 -4.8105,-3.60371 -10.5528,-6.08816 -16.5767,-6.58883 -6.7163,-0.60135 -13.4997,1.10981 -19.4275,4.23628 -1.4118,-4.54848 -4.5249,-8.44369 -8.3775,-11.18775 -3.634,-2.59208 -7.8294,-4.36044 -12.1717,-5.35588 -2.7502,-0.62266 -5.5749,-0.91345 -8.3942,-0.8758 z" />
  <path
     id="path19-2"
     style="display:block;fill:#5a4b4d;fill-opacity:1;stroke-width:0.602619"
     d="m 538.98369,55.679518 c -3.66235,0.0493 -7.35407,0.25466 -10.91436,1.17722 -5.57025,1.28753 -10.98207,3.86443 -14.94936,8.05918 -3.40707,3.49388 -5.54912,8.06569 -6.57911,12.8026 -1.60044,6.61368 -1.82711,13.44693 -2.19754,20.21155 -0.3872,7.666902 -0.89678,15.327492 -1.1919,22.998972 -1.52402,36.92745 -0.48459,73.95573 3.00451,110.74773 1.57439,17.48757 3.40419,34.98857 6.8092,52.22917 1.29309,6.0273 3.42209,12.0193 7.23382,16.9356 3.95192,5.1391 9.93488,8.582 16.30268,9.6769 6.83549,1.2949 13.91812,0.3981 20.52065,-1.6234 10.16832,-3.0849 19.58872,-8.2184 28.40695,-14.0772 10.15762,-6.7876 19.57144,-14.6262 28.55349,-22.8902 5.76785,-5.3475 11.16911,-11.0772 16.38426,-16.9606 10.96737,-12.4483 20.79623,-25.95679 28.71913,-40.55075 7.30231,-13.53536 12.87963,-28.14727 15.15496,-43.40788 1.7152,-11.48372 1.49705,-23.34272 -1.41611,-34.61807 -3.54549,-13.91309 -10.84824,-26.86197 -21.00984,-37.015282 -8.78195,-8.87599 -19.23443,-15.93129 -30.19585,-21.82922 -12.49732,-6.67417 -25.78588,-11.82096 -39.42744,-15.61794 -11.21296,-3.08761 -22.7103,-5.24167 -34.32488,-6.00026 -2.95697,-0.18768 -5.92044,-0.26947 -8.88326,-0.24812 z m 19.97938,56.581382 c 11.44048,2.42386 22.60658,6.18513 33.13911,11.27291 6.32795,3.09472 12.45256,6.69511 17.90389,11.17832 3.94502,3.26683 7.62757,7.05921 9.84229,11.73676 1.95403,4.09047 2.41403,8.71635 2.19125,13.19578 -0.0646,1.41412 -0.20808,3.00509 -0.37462,4.29279 -1.11957,8.67807 -4.34029,16.95236 -8.45054,24.6293 -5.27395,9.81999 -12.03053,18.76184 -19.28953,27.18993 -3.9561,4.57707 -8.11139,8.9848 -12.52581,13.12352 -1.01513,0.96534 -2.06359,1.9467 -3.05737,2.85716 -0.65682,0.60546 -1.22352,1.11533 -1.89025,1.71373 -0.5299,0.48153 -1.06733,0.95045 -1.63671,1.45479 -3.95355,3.46875 -8.04061,6.78795 -12.28897,9.88985 -0.29496,-2.035 -0.59396,-4.0704 -0.85132,-6.0733 -0.60363,-4.82522 -1.09503,-9.66397 -1.5874,-14.50168 -0.30251,-3.05189 -0.59641,-6.20087 -0.86301,-9.25838 -0.36182,-4.13353 -0.68899,-8.29479 -0.98134,-12.41468 -0.38539,-5.49276 -0.70918,-10.98936 -0.97689,-16.45783 -0.29958,-6.28673 -0.52796,-12.53077 -0.67476,-18.82728 -0.26055,-11.23621 -0.25364,-22.57352 -0.0396,-33.84914 0.12204,-6.20715 0.21203,-12.45769 0.73336,-18.67851 0.0808,-0.92082 0.16633,-1.8413 0.26816,-2.76005 0.47001,0.0953 0.94002,0.19067 1.41003,0.28601 z" />
  <path
     id="path42-2"
     style="display:block;fill:#5a4b4d;fill-opacity:1;stroke-width:0.602619"
     d="m 760.76366,85.313748 c -4.41253,0 -8.82506,0 -13.23759,0 0.11809,0.61791 0.23618,1.23583 0.35427,1.85375 -9.91085,2.62759 -19.04842,7.83142 -26.69359,14.625282 -8.00254,7.04458 -14.52415,15.60752 -20.15173,24.6214 -11.48809,18.58511 -18.55344,39.72886 -21.57992,61.31979 -2.22737,16.02481 -2.22531,32.3946 0.39944,48.37195 2.25659,13.08552 6.68773,25.89622 13.8008,37.15472 5.64188,8.8742 13.09688,16.7255 22.17391,22.121 9.31634,5.5494 20.23454,8.219 31.05083,8.0236 8.08231,-0.09 16.07815,-1.6819 23.7982,-4.0021 9.96976,-2.9387 19.65045,-6.9177 28.69909,-12.0426 6.02724,-3.4785 11.76852,-7.6059 16.40758,-12.8316 2.78778,-3.1955 4.9632,-6.9082 6.44412,-10.8795 0.61346,-1.5128 1.20292,-3.0348 1.80829,-4.5509 -1.01693,-5.5888 -2.34353,-11.2485 -5.25958,-16.1877 -3.44916,-5.96274 -9.25454,-10.66257 -16.01011,-12.25507 -5.22131,-1.26713 -10.76257,-0.48722 -15.71304,1.46396 -4.55613,1.74046 -8.61941,4.49597 -12.5657,7.31421 -2.55286,1.8146 -5.10795,3.6567 -7.93674,5.0259 -4.6305,2.275 -9.63445,3.9454 -14.8044,4.3222 -3.13002,0.2017 -6.46953,-0.033 -9.19985,-1.7241 -1.05245,-0.6686 -1.94638,-1.5614 -2.75116,-2.5071 16.23444,-10.29348 31.43424,-22.45635 43.95269,-37.10865 9.81723,-11.51809 17.86934,-24.63245 23.04073,-38.88543 4.04815,-11.04608 6.41722,-22.8259 5.93042,-34.62397 -0.35053,-8.34187 -2.21951,-16.74006 -6.31108,-24.07299 -4.4473,-7.96433 -11.5015,-14.307662 -19.58254,-18.449802 -8.00078,-4.16587 -17.04078,-6.30582 -26.06334,-6.09625 z m -0.68971,53.362312 c 0.11788,4.37248 -0.86591,8.70363 -2.27527,12.81943 -1.63932,4.75931 -4.0523,9.22141 -6.85934,13.38857 -0.10563,0.14609 -0.41154,0.5949 -0.59408,0.85722 -4.52519,6.4892 -10.00149,12.25552 -15.77549,17.64034 -0.31372,0.40643 -0.26953,0.0842 -0.14101,-0.31084 0.38212,-1.67853 0.80745,-3.34699 1.26386,-5.00679 0.0968,-0.34524 0.24753,-0.88669 0.37013,-1.30596 0.23176,-0.79951 0.47851,-1.62612 0.71101,-2.35788 1.31764,-4.22346 2.89684,-8.36551 4.73437,-12.3903 0.0976,-0.21439 0.30496,-0.65615 0.4446,-0.95759 1.46226,-3.10904 3.08682,-6.14171 4.87421,-9.07623 0.12006,-0.19891 0.38003,-0.61575 0.55365,-0.89808 2.50024,-3.95594 5.25323,-7.92826 9.15528,-10.62718 1.09528,-0.76278 2.29111,-1.3746 3.53337,-1.85946 l 0.003,0.0602 z" />
  <path
     id="path45-5"
     style="display:block;fill:#5a4b4d;fill-opacity:1;stroke-width:0.602619"
     d="m 1022.8956,71.553568 c -3.3884,0.25731 -6.6612,1.32013 -9.7851,2.61018 -6.6458,2.88354 -12.3772,8.06479 -15.46594,14.66471 -2.5239,5.33352 -3.2603,11.615052 -1.4678,17.287382 1.5304,4.94439 4.71614,9.21393 8.45904,12.71972 1.8086,1.73532 3.845,3.25021 5.42,5.21642 0.7045,1.5928 1.1535,3.28327 1.6786,4.94029 2.1719,7.40067 3.2501,15.07261 3.9192,22.7413 0.032,0.39311 0.081,0.97872 0.1171,1.44667 0.1196,1.57978 0.2193,3.18943 0.2947,4.72167 0.4293,8.91437 0.2547,17.86965 -0.4907,26.75439 -0.032,0.33798 -0.079,0.88049 -0.1173,1.2969 -0.3033,3.28646 -0.6937,6.56439 -1.1609,9.83153 -0.035,0.20923 -0.1064,0.69482 -0.1554,1.00985 -1.0852,7.18095 -2.6447,14.39638 -5.0191,21.30232 -1.5742,4.51108 -3.5513,8.9487 -6.4566,12.77051 -0.5932,0.70577 -1.1859,1.45185 -1.9937,1.92299 -2.68124,-1.97639 -4.32854,-4.97532 -5.77594,-7.90193 -2.638,-5.63918 -3.9154,-11.7948 -4.824,-17.92 -0.066,-0.4522 -0.1582,-1.08489 -0.2288,-1.60857 -0.7734,-5.37434 -0.9965,-10.80373 -1.3828,-16.21372 -0.5454,-7.03806 -1.579,-14.1575 -4.3924,-20.68502 -2.3594,-5.49115 -6.0587,-10.48622 -10.9779,-13.9381 -5.1006,-3.65686 -11.4388,-5.77767 -17.7456,-5.25973 -5.6443,0.45038 -10.998,2.94734 -15.2951,6.58063 -5.3344,4.48033 -9.1804,10.48298 -11.9956,16.79887 -3.9391,8.83691 -5.9151,18.35784 -8.9813,27.49981 -3.5054,10.41599 -7.7473,20.71666 -14.0569,29.77709 -0.6423,0.92231 -1.3094,1.82709 -1.9949,2.71771 -0.1306,0.16921 -0.404,0.51923 -0.5943,0.76038 -0.7188,0.90882 -1.4567,1.80259 -2.2164,2.67762 -1.5209,-3.32428 -2.6522,-6.8081 -3.8444,-10.25894 -1.8365,-5.5712 -3.299,-11.26372 -4.4416,-17.01661 -0.049,-0.26684 -0.1433,-0.75014 -0.2095,-1.09984 -0.2543,-1.32263 -0.4828,-2.65012 -0.7027,-3.97889 -0.039,-0.23962 -0.1115,-0.7149 -0.1633,-1.04473 -1.2673,-8.21016 -1.8832,-16.53744 -1.5669,-24.84431 0.1785,-4.82671 0.7596,-9.72003 1.4589,-14.53165 0.9682,-6.49161 2.3091,-12.92283 3.8458,-19.30207 1.7459,-7.15481 3.8511,-14.34127 6.2847,-21.33924 1.6742,-4.96533 3.9794,-9.76865 4.7612,-14.99242 0.7601,-4.71633 0.3975,-9.716412 -1.6744,-14.070772 -2.3397,-5.01519 -6.6474,-9.04102 -11.7611,-11.13417 -6.3358,-2.69699 -13.6184,-2.68811 -20.13609,-0.63814 -4.50329,1.38035 -8.75684,3.656 -12.24924,6.83473 -2.88413,2.54002 -5.32623,5.59629 -7.0449,9.04061 -3.64732,6.749272 -5.81967,14.158442 -7.79378,21.534942 -3.926,15.18691 -6.15386,30.76836 -7.423,46.38872 -1.40977,17.78564 -1.36644,35.77073 1.3981,53.42891 2.23832,14.24853 6.35874,28.32537 13.32124,41.01147 4.24436,7.748 9.52079,15.0161 16.12196,20.9283 6.09931,5.4317 13.42151,9.6719 21.44531,11.4359 7.3934,1.6157 15.2026,1.0064 22.3422,-1.4498 8.5022,-2.8742 16.1154,-7.9974 22.5585,-14.1877 6.4399,-6.2225 11.6716,-13.5845 16.1565,-21.307 3.818,6.5721 8.559,12.6411 14.26,17.6865 6.2047,5.514 13.5575,9.8403 21.5927,12.0375 6.7232,1.8714 13.85194,2.2959 20.73944,1.1421 11.0297,-1.7563 21.3515,-7.141 29.4509,-14.7812 7.0184,-6.5383 12.4108,-14.6355 16.6841,-23.1778 6.8381,-13.59682 10.986,-28.40192 13.503,-43.36901 2.934,-17.64244 3.5348,-35.63733 2.2642,-53.46453 -0.9011,-12.3662 -2.7494,-24.68709 -5.9201,-36.68212 -2.4157,-8.88077 -5.7907,-17.620702 -11.049,-25.228342 -4.2664,-6.15161 -9.8655,-11.53739 -16.669,-14.78375 -3.8644,-1.82438 -8.0493,-3.06735 -12.3285,-3.31147 -0.175,4.9e-4 -0.3507,-0.008 -0.5254,0.003 z" />
  <path
     fill="#5a4b4d"
     d="m 358.22556,159.59086 c 0.65267,0.0918 1.72139,0.15807 2.3472,0.50059 2.00429,1.09771 3.60277,4.18912 4.34975,6.49961 2.37519,7.35197 0.90069,17.92434 -2.02999,24.70102 a 33.412634,38.660312 0 0 1 -20.15085,19.44591 c -9.81909,3.4167 -17.98881,0.6315 -26.60599,-4.8266 -1.29335,-1.2544 -2.81756,-2.5413 -3.13933,-4.58325 -0.29031,-1.84761 -0.003,-2.96051 0.82241,-4.50723 1.24989,-0.79351 1.82653,-1.20481 3.33077,-0.76375 1.50705,0.44238 3.01586,1.82114 4.31431,2.78063 4.88183,3.60854 10.16087,5.2703 15.96281,4.4034 a 23.868207,27.616869 0 0 0 16.23942,-10.98169 c 7.24331,-11.4902 2.98215,-16.08205 2.47464,-27.77459 -0.0845,-1.94809 0.71096,-3.01604 1.72653,-4.41461 0.11721,-0.16202 0.23889,-0.32007 0.35832,-0.47944 z"
     id="path2"
     style="stroke-width:0.614753" />
  <path
     fill="#5a4b4d"
     d="m 256.58445,171.69273 c 0.93442,-0.005 1.80711,0.0303 2.73066,0.22021 5.8614,1.20681 10.51291,6.52936 13.66765,12.10187 2.99812,5.29675 5.89853,12.81008 4.53091,19.19528 -0.76353,3.5676 -2.2346,5.5275 -4.95727,7.2799 -1.09214,-0.1078 -2.22718,-0.2612 -3.29473,-0.5555 -5.93057,-1.6339 -11.27418,-8.77828 -14.39747,-14.60803 -2.59693,-4.84842 -4.96925,-11.1146 -3.58279,-16.88548 0.85955,-3.57614 2.62837,-4.9714 5.30304,-6.74825 z"
     id="path3"
     style="stroke-width:0.614753" />
  <path
     fill="#5a4b4d"
     d="m 356.48932,91.767238 c 1.33448,0.005 2.58436,0.0708 3.89198,0.41793 5.71394,1.51561 10.62377,7.56952 13.65393,13.112942 2.99928,5.48654 5.77166,13.06403 4.3606,19.59472 -0.74067,3.42734 -1.97227,5.32187 -4.56978,7.11389 -1.23732,0.0628 -2.33177,0.0114 -3.54507,-0.31475 -6.13458,-1.64722 -11.33074,-8.11244 -14.56204,-14.13062 -2.8804,-5.36489 -5.41048,-12.49335 -4.00401,-18.852112 0.76296,-3.45115 2.21061,-5.12615 4.77439,-6.942 z"
     id="path4"
     style="stroke-width:0.614753" />
  <path
     fill="#efa6a7"
     d="m 409.87053,114.376 c 2.21004,-0.23277 4.2886,-0.49925 6.4512,0.22285 2.0037,0.66987 4.51664,1.52091 5.31275,4.03375 0.93268,2.94394 -0.61266,6.85271 -1.77684,9.40585 -5.48248,12.03114 -16.0371,19.04785 -26.87006,22.94537 -2.99469,0.51909 -6.19687,1.05932 -9.01039,-0.65335 -1.44935,-0.88277 -2.13402,-1.69021 -2.58037,-3.53316 -0.89098,-3.68128 1.58766,-9.2584 3.15759,-12.27709 5.47276,-10.52343 15.18442,-17.39466 25.31612,-20.14422 z"
     id="path5"
     style="stroke-width:0.614753" />
  <path
     fill="#efa6a7"
     d="m 277.61312,214.22749 c 3.03927,-0.2162 5.58706,0.1931 8.28972,1.9216 1.46765,0.939 2.30605,2.1954 2.74496,4.0827 0.90299,3.8829 -1.37676,9.6161 -3.05357,12.8372 -5.19616,9.98255 -15.18841,17.32185 -24.8572,19.93325 -2.48206,0.3253 -4.41262,0.3974 -6.80038,-0.5323 -1.76596,-0.6877 -3.54051,-1.5435 -4.20745,-3.7594 -1.08471,-3.6011 1.01728,-8.6197 2.47233,-11.72805 5.18875,-11.0856 15.10899,-19.3118 25.41159,-22.755 z"
     id="path6"
     style="stroke-width:0.614753" />
  <path
     fill="#bdd6cd"
     d="m 255.16565,58.315728 c 1.54575,0.20633 3.55636,0.30423 4.84773,1.31082 4.79114,3.733 6.27269,13.44627 9.31604,18.70221 4.14037,7.14738 16.72373,12.37967 18.75544,19.34619 -0.9567,6.900612 -13.27214,12.543632 -17.57816,18.463052 -4.51221,6.20249 -6.99864,14.15193 -10.84149,20.86745 l -1.92864,-0.1259 c -6.91918,-4.03895 -7.83617,-14.87371 -12.35685,-21.09736 -4.92889,-6.78567 -13.36005,-10.32767 -17.50631,-18.005802 -0.088,-1.62265 -0.40991,-1.69704 0.67104,-3.05857 3.04167,-3.83275 8.48271,-6.05041 12.12274,-9.40139 7.77279,-7.155 10.06568,-17.83171 14.49846,-27.00067 z"
     id="path7"
     style="stroke-width:0.845144" />
  <path
     fill="#bdd6cd"
     d="m 1896.9816,123.47205 c 2.49,-0.3 5.45,-0.72 7.88,0.1 8.5,2.87 13.2,36.19 17.59,46.45 7.67,17.89 27.57,23.61 36.43,38.01 -0.16,2.29 -0.54,3.62 -2.24,5.3 -2.38,2.35 -6.22,3.97 -9.09,5.65 -8.05,4.71 -15.45,11.32 -20.62,19.11999 -10.25,15.45 -8.72,36.54 -19.68,50.85 -3.26,0.42 -5.95,1.1 -8.98,-0.57 -0.86,-0.88 -1.23,-1.19 -1.91,-2.11 -7.16,-9.53 -8.36,-32.87 -15.19,-45.21 -7.89,-14.26999 -24.25,-19.20999 -32.91,-30.60999 -1.28,-1.68 -1.18,-2.23 -1.52,-4.21 4.55,-11.4 20.66,-16.33 27.84,-26.32 8.01,-11.14 11.99,-25.22 15,-38.38 0.96,-4.23 1.59,-9.52 3.52,-13.35 0.91,-1.8 2.47,-3.32 3.88,-4.72 z"
     id="path8" />
  <path
     fill="#bdd6cd"
     d="m 146.34569,130.54345 c 1.92017,-0.0793 3.62312,0.0304 5.5247,0.30088 0.33722,0.22472 0.68288,0.43695 1.01082,0.67528 0.23327,0.16978 0.45552,0.35495 0.66934,0.5485 7.7246,6.99526 9.75889,21.88841 15.7814,30.64916 8.31114,12.08896 23.06311,20.12289 30.16232,31.28642 0.18089,3.57073 -0.79865,5.18917 -3.17351,7.66884 -11.22097,11.70862 -17.89509,12.5056 -27.74778,28.49827 -5.63625,9.14954 -8.3196,21.14554 -15.05287,29.33664 -2.10948,0.2873 -3.5082,0.2502 -5.58218,-0.2333 -7.18202,-5.2771 -9.51885,-18.687 -13.7429,-26.41414 -3.0763,-5.62612 -7.9004,-11.44916 -12.45486,-15.96393 -5.93209,-5.88051 -18.57209,-12.74307 -20.7331,-20.98663 -1.18237,-4.50715 4.15727,-7.73813 7.26909,-10.18482 13.74712,-10.8077 22.57042,-19.47804 29.56906,-35.96597 2.7391,-6.45267 5.02356,-13.10819 8.50047,-19.21522 z"
     id="path9"
     style="stroke-width:0.845144" />
  <path
     fill="#bdd6cd"
     d="m 1260.11,90.062048 c 1.3679,0.0168 2.7841,0.0139 4.1219,0.29829 13.9867,2.96729 6.7131,28.963642 12.3898,38.334962 1.374,0.26876 1.2836,0.32541 2.2719,-0.58153 2.1755,-1.98803 3.7905,-5.23675 5.6405,-7.58636 5.9358,-7.53333 13.1974,-14.23806 21.8208,-18.54678 9.202,-4.595572 19.8864,-6.244932 29.7694,-2.723232 9.3888,3.347542 17.1927,11.008022 21.1157,20.157582 1.85,4.30751 2.1754,10.17098 0.2651,14.50622 -1.0486,2.38818 -2.8504,4.37621 -5.3994,5.16745 -12.7333,3.96342 -12.3898,-13.97712 -20.8265,-17.92487 -3.5193,-1.64395 -7.2917,-1.41134 -10.8411,-0.0102 -16.6624,6.56914 -28.5159,29.08778 -34.8314,44.5588 -2.1934,5.27231 -3.7121,10.4723 -4.2846,16.16945 -0.6869,6.78247 0.1748,14.18202 0.4701,21.00065 l 1.7174,40.58816 c 0.2591,7.6351 0.9341,16.3731 -1.3257,23.7552 -1.0968,3.5796 -3.5254,6.1467 -6.906,7.6954 -2.9528,1.3619 -7.2977,2.1333 -10.3711,0.7111 -1.5186,-0.7051 -2.6455,-1.9344 -3.242,-3.4952 -2.5311,-6.6167 -5.5201,-67.59867 -6.4119,-79.84869 -2.0188,-27.71321 -5.526,-55.82897 -6.1045,-83.58978 -0.078,-3.86098 -0.012,-7.8955 1.7295,-11.426252 1.9826,-4.0074 5.1343,-5.81707 9.2321,-7.21032 z"
     id="path12"
     style="stroke-width:0.602619" />
  <path
     fill="#bdd6cd"
     d="m 1161.3228,103.45403 c 2.0007,0.041 3.9953,0.12173 5.984,0.34832 14.3543,1.6373 26.3103,9.80038 35.1266,20.97171 15.3186,19.40792 20.3866,46.90298 17.4578,71.0764 -2.9227,24.14812 -15.0353,49.19898 -34.4878,64.28848 -12.7152,9.865 -28.2146,14.3062 -44.196,12.1006 a 55.405079,55.405079 0 0 1 -37.2057,-21.6762 c -12.7574,-16.95162 -15.2281,-40.35609 -12.1126,-60.78666 2.525,-16.58647 10.1542,-38.51333 24.3639,-48.77532 0.2049,-0.14643 0.4098,-0.28745 0.6146,-0.43147 1.8501,-0.12414 3.6459,-0.14884 5.3814,0.62672 4.6643,2.08506 6.7072,6.87949 8.4849,11.33344 -11.269,19.62849 -19.7116,41.29261 -14.9208,64.31082 2.1392,10.24451 6.9181,20.77227 16.0899,26.52727 7.4604,4.6883 17.8857,5.3392 26.3163,3.0974 12.203,-3.2481 21.64,-13.10688 27.8229,-23.70094 10.6061,-18.1599 14.1976,-40.15667 8.8042,-60.57096 -3.2963,-12.48806 -10.5096,-24.66034 -22.104,-31.04449 -4.5317,-2.49423 -12.0403,-4.927 -17.1866,-3.21677 -7.7136,2.56294 -2.3865,12.8418 -5.1223,17.93814 -2.9288,2.6015 -7.3519,2.2574 -11.052,2.44361 -4.5799,-7.30794 -8.3403,-11.52025 -15.6862,-16.13449 1.1811,-5.87131 3.3687,-11.12976 7.2917,-15.70484 8.1655,-9.52559 18.3557,-12.05176 30.3358,-13.02077 z"
     id="path15"
     style="stroke-width:0.602619" />
  <path
     fill="#bdd6cd"
     d="m 1411.084,95.427158 a 20.460394,20.460394 0 0 1 8.9126,1.24018 c 2.9227,1.0805 6.9663,3.29813 7.4605,6.773432 1.1148,7.91418 -13.6252,34.56498 -11.3052,39.78004 5.8816,-1.37217 19.7297,-31.60552 39.0196,-34.59873 4.8811,-0.75809 9.2863,0.66469 13.1973,3.59703 14.6737,11.00321 17.2891,34.07987 18.645,50.96342 0.3677,4.51783 0.097,10.01613 1.0606,14.36341 0.3375,1.51378 0.934,1.98261 2.1936,2.75457 1.6813,-0.44293 2.4707,-1.01963 3.5313,-2.43699 2.2779,-3.04322 4.1822,-6.50165 6.4179,-9.62321 9.5153,-13.29617 21.3266,-26.49773 37.3322,-31.73568 7.5026,-2.45567 15.9934,-2.9914 23.1345,0.86234 8.8344,4.76792 13.6071,15.48368 16.4575,24.67601 8.1956,26.40372 12.414,102.13966 -0.2833,124.91256 -2.8262,5.0619 -6.8035,6.2792 -12.0704,7.6834 -3.0914,-0.9703 -5.7369,-1.9707 -8.5511,-3.6097 -1.4945,-2.525 -3.0192,-4.9716 -2.983,-7.9847 0.078,-7.9666 3.0312,-16.2888 3.9713,-24.2916 2.8142,-23.89378 4.5316,-69.6072 -7.2615,-90.75067 -0.1086,-0.13619 -0.217,-0.27358 -0.3315,-0.40857 -1.5729,-1.89222 -3.4048,-3.67296 -6.0383,-3.71032 -14.5652,-0.2067 -39.8029,47.12414 -46.2268,59.89362 -3.2421,6.43596 -7.2736,19.06084 -12.4863,23.53824 -2.8082,2.4166 -6.2913,3.3325 -9.9371,2.8624 -3.7905,-0.482 -8.2017,-2.3803 -9.8407,-6.0924 -2.7178,-6.1527 -0.7774,-30.09476 -0.7895,-38.10717 -0.024,-10.33852 -1.838,-60.35041 -6.6228,-66.21388 -1.5066,-0.46763 -2.1091,-0.49415 -3.5494,0.23863 -4.8089,2.44663 -9.666,9.24899 -12.8719,13.4631 -22.1763,29.12152 -34.3613,62.78437 -45.2205,97.30832 -1.9524,6.2191 -3.7302,13.5108 -10.1722,16.5661 -3.0915,1.4583 -7.5869,1.8259 -10.7989,0.5845 -2.6817,-1.0365 -4.5015,-3.3446 -5.6104,-5.9297 -1.1751,-2.742 -1.5005,-5.731 -1.3739,-8.6898 0.4881,-11.5221 3.6759,-23.71308 5.7369,-35.11461 a 1436.9311,1436.9311 0 0 1 15.433,-75.18265 c 2.7841,-11.6703 5.3754,-24.01072 9.7504,-35.21158 2.8745,-7.3658 4.8992,-9.282742 12.0705,-12.369342 z"
     id="path17"
     style="stroke-width:0.602619" />
  <path
     id="path19"
     d="m 539.61572,71.214598 a 72.061688,72.061688 0 0 0 -5.66837,0.22127 c -4.50638,0.74664 -8.92792,1.83893 -11.79579,5.71075 -3.57714,4.83119 -3.59192,20.0438 -4.00411,26.284512 a 798.38476,798.38476 0 0 0 1.71841,125.49289 c 1.50353,16.86122 3.18428,33.72682 6.24981,50.38922 0.99733,5.4176 2.75403,12.868 7.57981,16.1341 4.41236,2.983 11.20289,2.6275 16.11062,1.4101 19.92255,-4.9595 41.23269,-22.5516 56.15412,-36.5384 26.21148,-25.67762 54.04819,-63.83577 54.43808,-101.67537 A 66.272938,66.272938 0 0 0 640.91914,110.46011 C 617.96722,87.306308 572.26618,71.219418 539.61572,71.214598 Z m 5.89672,25.59008 c 24.60068,1.99407 57.90237,13.491932 76.21473,30.411042 8.77773,8.11003 13.9266,17.34372 14.33336,29.46239 0.9895,29.48549 -19.64032,57.14466 -38.85239,77.60359 -13.61737,13.78784 -29.35126,27.08774 -46.82297,35.65094 -0.53512,-10.8893 -2.94591,-22.1109 -4.07944,-33.01221 A 766.70512,766.70512 0 0 1 541.586,136.6175 c 0.26817,-13.16359 0.22275,-27.10299 3.92644,-39.812822 z"
     style="fill:#bdd6cd;fill-opacity:1;stroke-width:0.602619" />
  <path
     fill="#5a4b4d"
     d="m 1714.552,58.098568 c 1.217,0 2.6861,-0.089 3.8585,0.19291 2.6267,0.62329 5.0754,2.99028 6.359,5.31276 3.198,5.78764 2.0034,14.72141 -0.013,20.70191 -2.4857,7.3904 -6.4109,12.4657 -13.408,15.871502 -1.2243,-0.1484 -2.4858,-0.296802 -3.6729,-0.630702 -3.0942,-0.8756 -5.5651,-3.7323 -6.8709,-6.5667 -2.7381,-5.9435 -1.6993,-13.9942 0.5045,-19.93772 2.6192,-7.06389 6.4628,-11.73851 13.2373,-14.94396 z"
     id="path24"
     style="stroke-width:0.742005" />
  <path
     fill="#5a4b4d"
     d="m 1821.423,84.128048 c 1.7288,-0.1335 3.4577,-0.23 5.1718,0.074 2.8122,0.5046 5.4314,2.4635 6.9971,4.8156 3.3093,4.9566 2.6638,12.480602 1.3207,17.964002 -2.085,8.4885 -6.3145,15.3817 -13.7939,19.9747 -1.2761,0.1261 -2.6934,0.2078 -3.9623,-0.01 -2.8789,-0.4823 -5.8246,-2.456 -7.4274,-4.8675 -3.1758,-4.7637 -2.8716,-12.5918 -1.8328,-17.9639 1.7067,-8.837302 6.077,-15.136902 13.5268,-19.989702 z"
     id="path25"
     style="stroke-width:0.742005" />
  <path
     fill="#5a4b4d"
     d="m 1717.1862,136.47655 c 1.2762,0.089 2.7082,0.089 3.851,0.7494 3.2129,1.8476 4.17,9.0524 5.335,12.3766 2.5822,7.3459 7.5091,12.7551 14.6027,16.0051 4.6894,2.1518 9.9948,3.109 15.1442,2.9606 21.5108,-0.6233 18.7505,-21.5998 28.5302,-25.3692 1.6546,0.5268 1.9885,0.6159 3.0199,2.1147 1.7289,2.508 1.5805,4.5485 1.1352,7.4646 -3.8509,9.5496 -8.8669,17.5262 -18.6391,21.9411 -9.5867,4.3333 -21.4959,4.1033 -31.2829,0.4749 -9.0599,-3.3539 -17.5038,-10.0987 -21.3623,-19.1289 -2.7899,-6.5297 -2.8567,-13.0148 -0.3339,-19.5889 z"
     id="path26"
     style="stroke-width:0.742005" />
  <path
     fill="#efa6a7"
     d="m 1670.3509,98.389448 c 7.2567,-0.1929 14.6768,0.6529 21.3623,3.606102 5.4017,2.3819 11.3823,6.8932 13.3487,12.6957 0.7642,2.2557 0.6602,4.5633 -0.5714,6.6558 -2.968,5.0308 -9.9132,7.2123 -15.2408,8.4885 -8.2956,0.653 -15.8493,-0.7123 -23.0986,-4.9714 -4.8453,-2.8419 -9.8168,-7.2791 -11.041,-13.0073 -0.5268,-2.4635 -0.2301,-4.9047 1.254,-6.9823 3.0347,-4.222 9.1488,-5.802502 13.9868,-6.485102 z"
     id="path27"
     style="stroke-width:0.742005" />
  <path
     fill="#efa6a7"
     d="m 1815.6354,139.80815 c 5.4314,-0.423 10.8109,-0.3042 16.1682,0.7494 9.5496,1.8698 23.4399,6.7003 28.8789,15.3669 1.2613,2.0108 1.662,4.0143 0.9348,6.3367 -1.4024,4.4372 -7.3976,7.9098 -11.3303,9.5719 -10.1729,1.8624 -21.726,0.2152 -31.0381,-4.2443 -5.9138,-2.8344 -13.6306,-8.214 -15.686,-14.7733 -0.5936,-1.9069 -0.4896,-3.8213 0.5416,-5.5576 2.3152,-3.8955 7.4053,-6.2032 11.5309,-7.4497 z"
     id="path28"
     style="stroke-width:0.742005" />
  <path
     id="path42"
     d="m 760.73894,100.86765 c -1.08058,0.0168 -2.17072,0.0684 -3.27908,0.1483 -15.53671,1.90186 -27.41957,11.07827 -36.91743,23.11135 -22.72835,28.79491 -32.09986,69.75566 -27.61216,105.80189 2.32008,18.64495 10.04421,39.17105 25.31939,51.03655 10.23968,7.9607 22.38636,10.2454 35.06484,8.552 14.84731,-1.9825 43.29769,-12.4927 52.42072,-25.0393 1.2185,-1.6752 2.06442,-3.6942 2.81774,-5.6165 -0.95514,-4.4594 -2.57285,-9.0271 -6.54173,-11.7087 -2.31164,-1.5608 -4.89673,-1.905 -7.58923,-1.2782 -6.50526,1.5125 -12.07298,6.9009 -17.6713,10.3057 -11.3949,6.9422 -28.80174,11.7795 -41.2205,4.8916 -7.77136,-4.3148 -12.37327,-12.78 -15.07722,-20.9575 32.86017,-18.64503 64.14665,-45.03106 74.68463,-82.84354 3.42468,-12.28798 4.57807,-28.44821 -2.1586,-39.88109 -4.74922,-8.05941 -13.61879,-13.3791 -22.58875,-15.52683 -3.25776,-0.78009 -6.40957,-1.04629 -9.65132,-0.99573 z m 1.48772,23.86462 c 0.44901,0.0121 0.89361,0.0415 1.32764,0.0895 2.84195,0.31397 5.55923,1.65645 7.35383,3.89819 3.29391,4.11407 3.54765,11.31403 2.9613,16.30129 -3.1764,27.0226 -25.40103,47.2996 -45.3941,63.22077 -3.7977,2.4834 -7.59152,4.50742 -11.88759,5.98383 -0.71108,-22.74222 4.81958,-47.18766 16.35309,-66.88122 6.17081,-10.53558 12.96613,-19.20834 25.25111,-22.37691 1.29714,-0.16135 2.68767,-0.27158 4.03472,-0.2354 z"
     style="fill:#bdd6cd;fill-opacity:1;stroke-width:0.602619" />
  <path
     fill="#bdd6cd"
     d="m 1022.9496,87.118258 c 3.0245,0.50077 5.6116,1.39205 8.2215,3.03539 11.0442,6.95843 16.2568,22.094392 19.041,34.169052 8.7801,38.0463 6.8035,93.16296 -14.469,126.63844 -6.8607,10.7989 -16.8105,19.3923 -29.6475,21.9594 -19.36644,3.8869 -35.45394,-9.1116 -44.09494,-25.3402 -2.7521,-5.1644 -4.9131,-14.58931 -9.7449,-17.86153 -2.2266,0.0362 -3.2981,1.11485 -4.6618,2.81427 -2.9329,3.65183 -4.95,8.17746 -7.1555,12.29336 -5.2127,9.7383 -11.6432,19.4586 -20.4245,26.3465 -7.2508,5.6826 -16.3521,9.8829 -25.7705,8.5391 -9.4056,-1.3439 -17.7054,-8.2559 -23.33511,-15.6139 -23.48707,-30.69735 -22.36374,-79.40756 -17.24512,-115.70928 1.62767,-11.54375 6.23345,-35.44781 12.71766,-45.00835 1.28838,-1.89885 3.01309,-3.23365 4.82513,-4.601592 a 39.119081,39.119081 0 0 1 2.74374,-1.35649 c 3.6073,-1.58067 8.5253,-2.19414 12.2187,-0.53151 7.329,3.298122 4.9114,10.636212 2.6985,16.349632 -7.3863,19.07286 -14.1567,46.86622 -14.5743,67.3468 -0.3724,18.29007 3.2535,38.5977 9.5828,55.77836 2.1586,5.85743 5.4453,14.93293 11.6354,17.51813 2.2278,0.934 4.5697,0.8195 6.771,-0.1206 3.9321,-1.6813 6.9072,-5.3693 9.6051,-8.5571 10.8207,-12.77555 17.4705,-29.31741 22.2872,-45.22111 2.0327,-6.70955 3.6929,-13.68787 6.5132,-20.11841 2.4791,-5.65316 6.6818,-12.37476 12.749,-14.53756 3.0757,-1.09677 6.0303,-0.60322 8.8813,0.8738 12.1675,6.30037 10.8827,24.82545 12.0614,36.44334 0.728,7.17115 1.8194,14.44776 3.8749,21.37185 2.4677,8.31014 7.7008,18.87399 15.7199,22.92359 3.3223,1.6753 7.09344,2.0007 10.62594,0.7955 6.7747,-2.302 11.2142,-9.2743 14.2538,-15.3909 13.3872,-26.95633 15.4174,-84.45574 4.1303,-112.77278 -2.7521,-6.9054 -11.5709,-10.19931 -13.4992,-16.80581 -0.7461,-2.55511 0,-5.467562 1.3227,-7.701462 2.516,-4.24304 6.765,-6.74391 11.4625,-7.8021 0.2259,-0.0512 0.4532,-0.0976 0.6797,-0.14583 z"
     id="path45"
     style="stroke-width:0.602619" />
</svg>
