<?xml version="1.0" encoding="UTF-8" standalone="no"?>
<svg
   width="1024"
   height="1024"
   version="1.1"
   id="svg57"
   sodipodi:docname="mascot-sad.svg"
   inkscape:version="1.4 (e7c3feb1, 2024-10-09)"
   xmlns:inkscape="http://www.inkscape.org/namespaces/inkscape"
   xmlns:sodipodi="http://sodipodi.sourceforge.net/DTD/sodipodi-0.dtd"
   xmlns="http://www.w3.org/2000/svg"
   xmlns:svg="http://www.w3.org/2000/svg">
  <defs
     id="defs57" />
  <sodipodi:namedview
     id="namedview57"
     pagecolor="#ffffff"
     bordercolor="#000000"
     borderopacity="0.25"
     inkscape:showpageshadow="2"
     inkscape:pageopacity="0.0"
     inkscape:pagecheckerboard="0"
     inkscape:deskcolor="#d1d1d1"
     inkscape:zoom="0.98535156"
     inkscape:cx="511.49257"
     inkscape:cy="430.30327"
     inkscape:window-width="2136"
     inkscape:window-height="1239"
     inkscape:window-x="863"
     inkscape:window-y="181"
     inkscape:window-maximized="0"
     inkscape:current-layer="svg57" />
  <path
     fill="#6F313E"
     d="M239.662 67.9136C240.771 67.8338 241.654 67.9542 242.742 68.1709C243.705 69.0573 244.132 69.5642 244.282 70.9113C244.845 75.9698 223.533 141.867 219.82 151.039C218.094 155.304 215.891 159.438 213.106 163.108C207.24 170.842 198.726 175.025 189.216 176.295C181.261 177.357 172.69 176.8 166.14 171.75C164.453 169.717 163.278 167.751 162.836 165.102C162.315 161.98 163.092 159.15 165.02 156.655C169.449 150.927 177.658 148.42 184.623 147.723C192.813 146.904 200.051 148.366 206.523 153.623C214.845 136.344 221.841 114.927 228.364 96.7047C230.856 89.7451 235.475 73.3698 239.662 67.9136Z"
     id="path2"
     style="fill:#f6dcbf;fill-opacity:1" />
  <path
     fill="#6F313E"
     d="M89.6423 197.265C89.7307 197.28 89.8186 197.299 89.9076 197.309C90.9146 197.43 91.6188 197.505 92.4894 198.079C97.2466 201.22 101.805 205.08 106.385 208.505L136.243 230.884C147.16 239.067 163.406 249.26 172.465 258.844C173.904 260.367 174.735 261.395 174.666 263.535C173.897 264.569 173.574 265.048 172.198 265.297C166.835 266.269 112.066 227.926 104.983 222.056C104.896 246.599 106.389 270.638 102.85 295.07C102.211 304.537 99.4348 316.345 93.9165 324.188C89.7435 330.119 84.0429 332.765 77.0978 333.966C65.3025 336.005 52.1684 333.033 42.4028 326.09C37.4673 322.58 32.8884 317.318 31.9802 311.152C31.4059 307.253 32.5863 303.53 35.0235 300.473C38.5055 296.106 43.7646 293.864 49.2309 293.345C63.9619 291.946 76.7132 299.037 87.7616 308.035C91.9116 279.483 91.898 255.225 90.4863 226.445C90.1889 220.381 87.331 201.536 89.6423 197.265Z"
     id="path3"
     style="fill:#f6dcbf;fill-opacity:1" />
  <path
     fill="#6F313E"
     d="M549.477 40.2131Q553.539 40.0705 557.603 40.0908Q561.667 40.1112 565.728 40.2946Q569.788 40.478 573.837 40.8241Q577.887 41.1702 581.919 41.6784Q585.952 42.1867 589.961 42.8562Q593.969 43.5258 597.948 44.3556Q601.927 45.1855 605.869 46.1742Q609.812 47.1629 613.711 48.309C654.914 60.3211 698.876 85.0906 726.016 118.742C731.671 125.753 736.325 133.383 740.649 141.262C760.021 176.565 760.819 216.057 756.062 255.083C754.721 266.087 753.344 277.729 750.246 288.389Q751.866 290.426 753.323 292.583C766.7 312.431 772.049 341.634 767.26 365.044C761.268 394.33 742.205 426.817 716.876 443.326C696.806 456.407 672.259 459.861 649.015 454.982C632.356 488.081 612.906 520.104 593.289 551.519Q580.204 572.296 567.498 593.306C553.474 616.379 539.032 640.428 531.294 666.488Q530.818 668.074 530.381 669.671Q529.944 671.268 529.546 672.876Q529.148 674.483 528.789 676.1Q528.431 677.717 528.112 679.342Q527.794 680.967 527.515 682.599Q527.236 684.231 526.998 685.87Q526.759 687.509 526.561 689.153Q526.362 690.797 526.204 692.445Q526.046 694.094 525.929 695.745Q525.811 697.397 525.734 699.051Q525.657 700.705 525.62 702.361Q525.584 704.017 525.588 705.672Q525.592 707.328 525.637 708.984Q525.681 710.639 525.766 712.293Q525.852 713.947 525.977 715.598Q526.103 717.249 526.269 718.897Q526.435 720.544 526.642 722.187Q526.848 723.83 527.095 725.468Q527.342 727.105 527.628 728.736Q527.915 730.367 528.242 731.99Q528.568 733.614 528.935 735.229Q529.301 736.844 529.707 738.449Q530.113 740.055 530.557 741.65Q531.003 743.245 531.486 744.828Q531.97 746.412 532.493 747.983Q533.016 749.555 533.577 751.113Q534.138 752.671 534.737 754.215Q535.336 755.759 535.972 757.287Q536.609 758.816 537.283 760.329Q537.957 761.841 538.668 763.337Q539.378 764.832 540.126 766.31Q540.873 767.788 541.656 769.247Q544.293 766.492 547.079 763.888C577.986 734.883 624.987 720.777 666.958 722.098C704.05 723.266 741.001 734.761 766.945 762.534C785.269 782.151 799.945 810.089 803.704 836.832C805.202 847.487 804.869 858.104 804.503 868.814C812.156 869.931 819.793 871.075 827.536 871.327C842.814 871.825 868.164 869.788 881.467 862.31C884.377 860.674 888.321 858.103 889.252 854.782C888.886 852.505 887.274 850.853 885.674 849.297C880.681 844.441 874.588 840.452 869 836.312C858.674 828.659 848.137 820.976 838.677 812.247Q834.181 808.029 830.281 803.254Q826.382 798.478 823.147 793.23C815.952 781.622 812.503 769.602 815.801 756.098C823.452 724.765 856.819 699.416 883.121 683.461C903.757 670.944 932.831 659.46 956.013 652.513C958.649 651.723 964.933 649.272 967.611 650.304C968.959 650.824 969.205 651.485 969.85 652.669C969.841 655.39 967.741 656.973 965.716 658.552C957.041 665.314 946.535 670.528 937.291 676.586C916.059 690.498 877.872 719.34 867.264 742.555C864.629 748.32 863.421 753.956 865.86 760.068C872.606 776.972 903.676 787.333 919.584 794.016C940.262 802.956 964.913 810.579 980.675 827.46C988.585 835.932 993.537 846.214 993.091 857.959C992.455 874.695 980.942 890.676 968.97 901.546C918.961 946.954 810.395 957.353 745.198 953.934C713.144 974.197 676.83 981.277 639.525 984.051C627.302 984.96 615.073 985.631 602.813 985.4C519.045 983.821 403.66 958.809 333.351 912.199C320.285 903.537 307.734 892.908 296.892 881.59C259.301 842.347 245.227 797.781 246.504 744.125C247.795 689.881 273.266 623.752 298.848 576.542Q310.93 554.652 324.539 533.678Q338.148 512.704 353.216 492.752C364.356 477.969 378.796 459.41 392.103 446.707C370.634 438.553 346.399 424.307 328.742 409.684C305.807 390.689 286.39 367.946 277.585 338.991C275.095 330.804 274.308 322.309 271.987 314.204C270.986 310.709 268.131 307.239 266.594 303.86C261.887 293.51 259.504 282.774 258.51 271.483C255.563 237.995 267.647 206.351 289.145 180.918Q290.057 179.827 290.996 178.76Q291.934 177.692 292.899 176.648Q293.864 175.603 294.854 174.583Q295.844 173.563 296.859 172.568Q297.874 171.572 298.914 170.602Q299.953 169.632 301.016 168.688Q302.079 167.744 303.165 166.826Q304.251 165.908 305.359 165.018Q306.467 164.127 307.597 163.264Q308.727 162.401 309.878 161.567Q311.028 160.732 312.199 159.926Q313.37 159.119 314.561 158.342Q315.752 157.565 316.961 156.818Q318.17 156.07 319.398 155.353Q320.625 154.636 321.87 153.949Q323.115 153.262 324.376 152.606Q325.637 151.95 326.915 151.325Q328.192 150.701 329.484 150.108Q330.776 149.515 332.082 148.954Q333.389 148.393 334.709 147.865Q336.028 147.336 337.361 146.84Q338.693 146.345 340.038 145.882Q341.382 145.419 342.737 144.99Q344.093 144.56 345.458 144.164Q346.823 143.769 348.198 143.406Q349.573 143.044 350.956 142.716Q352.34 142.388 353.731 142.095Q355.122 141.801 356.52 141.541Q357.918 141.282 359.321 141.057Q360.725 140.832 362.134 140.642Q363.543 140.452 364.956 140.297Q366.369 140.141 367.786 140.021C416.059 88.677 476.877 44.6767 549.477 40.2131Z"
     id="path4"
     style="fill:#70404a;fill-opacity:1" />
  <path
     fill="#F0B5B0"
     d="M800.43 885.359C804.431 889.532 805.751 903.371 806.523 909.325Q802.164 908.965 797.811 908.543C795.227 908.533 792.702 908.203 790.143 907.889Q795.659 896.794 800.43 885.359Z"
     id="path5"
     style="fill:#f2a8ad;fill-opacity:1" />
  <path
     fill="#F0B5B0"
     d="M933.574 668.448L934.12 668.617C933.562 669.844 925.82 674.592 923.892 676.038C912.526 684.568 901.082 693.053 890.797 702.897C889.144 701.169 887.403 699.832 885.471 698.449C883.459 697.475 881.407 696.57 879.378 695.633C885.632 692.971 891.165 688.659 897.138 685.426C909.054 678.976 921.083 673.624 933.574 668.448Z"
     id="path6"
     style="fill:#f2a8ad;fill-opacity:1" />
  <path
     fill="#F0B5B0"
     d="M404.073 451.932C407.173 453.247 410.525 454.221 413.711 455.333C408.365 462.586 402.377 469.353 396.815 476.44C392.826 481.523 389.181 486.891 385.494 492.195L384.699 492.953C382.169 492.633 378.579 486.987 376.956 484.906C384.387 472.945 394.849 462.525 404.073 451.932Z"
     id="path7"
     style="fill:#f2a8ad;fill-opacity:1" />
  <path
     fill="#FEFDFB"
     d="M739.581 945.656L739.796 945.821C739.639 946.045 739.514 946.296 739.325 946.494C736.978 948.953 727.856 952.839 724.356 954.421C698.75 965.995 676.949 972.924 648.657 973.173L648.26 972.601C652.68 968.238 656.6 963.747 660.222 958.698C677.489 957.623 695.007 956.065 711.975 952.628C721.26 950.748 730.417 948.054 739.581 945.656Z"
     id="path8"
     style="fill:#f6dcbf;fill-opacity:1" />
  <path
     fill="#FEFDFB"
     d="M787.231 913.207Q796.718 914.248 806.173 915.549C804.895 926.749 802.104 936.089 795.627 945.439C789.441 946.169 783.111 946.058 776.887 946.182C770.462 946.518 763.973 946.438 757.537 946.515C769.446 936.657 778.816 926.166 787.231 913.207Z"
     id="path9"
     style="fill:#f6dcbf;fill-opacity:1" />
  <path
     fill="#F0B5B0"
     d="M910.578 863.189C921.839 862.328 932.697 863.229 943.713 865.573C934.812 875.51 922.95 881.902 911.009 887.48C907.272 889.185 903.442 890.722 899.661 892.328C894.85 884.058 889.002 879.159 881.062 873.926C885.006 872.105 888.465 869.609 892.298 867.632C897.863 864.762 904.452 864.065 910.578 863.189Z"
     id="path10"
     style="fill:#f2a8ad;fill-opacity:1" />
  <path
     fill="#F0B5B0"
     d="M873.509 699.93C878.318 701.357 882.305 704.155 886.489 706.821C873.986 718.54 863.877 728.558 856.691 744.496C847.994 745.278 841.206 747.031 833.496 751.164C830.458 752.91 827.63 755.064 824.776 757.097C829.733 735.021 856.242 712.959 873.509 699.93Z"
     id="path11"
     style="fill:#f2a8ad;fill-opacity:1" />
  <path
     fill="#FEFDFB"
     d="M951.993 821.534C957.427 821.014 961.121 821.879 965.658 825.019C975.065 831.529 982.887 839.927 984.838 851.547C986.71 862.701 982.267 871.84 975.932 880.684L973.233 884.033C967.761 875.632 962.95 870.229 954.381 864.985C956.898 861.392 959.089 857.777 960.145 853.47C962.971 841.949 957.719 831.21 951.993 821.534Z"
     id="path12"
     style="fill:#f6dcbf;fill-opacity:1" />
  <path
     fill="#F0B5B0"
     d="M372.48 489.802L373.039 490.104C375.14 493.587 377.425 496.415 380.479 499.099C376.532 505.554 371.841 511.639 367.637 517.939C362.575 525.525 357.913 533.417 353.233 541.244C346.536 552.446 341.136 564.618 334.384 575.662L333.727 575.692C330.054 571.206 326.414 566.771 323.732 561.606C332.195 545.489 342.964 529.936 353.418 515.043C359.476 506.412 365.344 497.594 372.48 489.802Z"
     id="path13"
     style="fill:#f2a8ad;fill-opacity:1" />
  <path
     fill="#F0B5B0"
     d="M942.259 823.593C943.292 823.426 944.163 823.148 945.083 823.772C949.553 826.806 952.695 836.063 953.649 841.221C955.269 849.986 952.685 854.991 947.776 862.052C936.34 857.212 925.763 855.597 913.376 856.519C908.259 856.858 903.391 858.387 898.503 859.83C899.41 854.441 900.133 849.634 903.091 844.914C911.357 831.72 927.999 826.916 942.259 823.593Z"
     id="path14"
     style="fill:#f2a8ad;fill-opacity:1" />
  <path
     fill="#F0B5B0"
     d="M850.366 750.614L855.021 750.242Q855.042 752.987 855.348 755.715C856.641 767.306 863.597 773.876 872.207 780.792C863.63 785.288 856.09 790.074 851.101 798.674C849.635 801.201 848.847 804.254 847.191 806.623C847.073 806.791 846.936 806.945 846.809 807.106C845 805.482 843.276 803.735 841.57 802.004C830.53 790.801 823.461 779.541 823.621 763.461C830.259 756.462 841.12 752.494 850.366 750.614Z"
     id="path15"
     style="fill:#f2a8ad;fill-opacity:1" />
  <path
     fill="#F0B5B0"
     d="M319.57 567.777C322.989 573.006 326.041 577.886 330.544 582.278C322.607 600.438 314.145 618.794 307.781 637.572C306.486 641.393 301.569 660.892 299.481 662.272L298.593 661.677C292.571 654.494 288.799 646.576 286.09 637.677C291.059 622.762 298.455 607.956 305.495 593.913C309.928 585.069 314.231 576.122 319.57 567.777Z"
     id="path16"
     style="fill:#f2a8ad;fill-opacity:1" />
  <path
     fill="#FEFDFB"
     d="M950.681 869.405C959.194 874.618 964.915 880.41 968.726 889.729C954.663 904.851 937.662 914.191 918.568 921.504L907.976 925.357C908.146 915.863 906.465 906.803 902.998 897.973C920.588 891.72 937.191 882.347 950.681 869.405Z"
     id="path17"
     style="fill:#f6dcbf;fill-opacity:1" />
  <path
     fill="#F0B5B0"
     d="M871.922 876.152C872.227 876.113 872.529 876.041 872.836 876.037C878.135 875.957 890.767 890.269 893.957 894.426C870.986 901.963 848.246 906.776 824.228 909.434Q818.131 909.877 812.02 910.016C811.836 898.285 808.755 889.042 804.83 878.161C827.365 882.502 849.594 880.757 871.922 876.152Z"
     id="path18"
     style="fill:#f2a8ad;fill-opacity:1" />
  <path
     fill="#F0B5B0"
     d="M261.003 750.841C263.756 754.246 265.764 758.912 268.161 762.651C273.598 771.128 281.239 777.072 289.153 783.099C292.199 804.427 296.217 825.454 304.028 845.631C307.426 854.409 314.005 865.538 316.211 874.073C307.88 868.995 297.338 861.352 291.412 853.622C274.457 831.505 265.325 798.571 261.989 771.241C261.19 764.69 260.154 757.384 261.003 750.841Z"
     id="path19"
     style="fill:#f2a8ad;fill-opacity:1" />
  <path
     fill="#F0B5B0"
     d="M596.684 746.921C597.227 747.008 596.93 746.892 597.46 747.478C596.576 750.547 595.617 753.416 595.089 756.586C592.104 774.53 598.056 795.951 607.606 811.151C610.825 816.276 614.998 820.702 618.504 825.632C607.097 822.895 596.485 818.193 586.042 812.961C571.184 804.888 559.042 794.453 548.656 781.17C560.677 765.636 579.005 754.796 596.684 746.921Z"
     id="path20"
     style="fill:#f2a8ad;fill-opacity:1" />
  <path
     fill="#FEFDFB"
     d="M547.706 943.451C557.019 945.799 566.221 948.665 575.59 950.782C601.181 956.566 626.65 958.773 652.831 958.689C650.494 961.592 648.111 964.448 645.384 966.999C635.534 976.216 627.114 974.775 614.681 974.407C581.344 972.396 540.755 968.905 508.518 960.568C522.16 957.915 536.023 950.686 547.706 943.451Z"
     id="path21"
     style="fill:#f6dcbf;fill-opacity:1" />
  <path
     fill="#F0B5B0"
     d="M281.953 647.785C286.72 656.145 291.489 663.45 298.769 669.809C288.906 706.711 287.551 737.535 288.491 775.551C286.718 774.088 285.013 772.537 283.289 771.018C276.978 764.634 271.647 756.618 267.602 748.629C265.545 744.566 263.032 739.666 262.48 735.083C261.876 730.071 262.97 724.58 263.691 719.606C267.271 694.918 274.268 671.436 281.953 647.785Z"
     id="path22"
     style="fill:#f2a8ad;fill-opacity:1" />
  <path
     fill="#FEFDFB"
     d="M896.691 900.004L896.947 900.09C899.961 903.006 901.694 922.239 902.095 927.363C872.057 937.405 841.304 941.674 809.879 944.666C807.744 944.899 805.575 944.951 803.43 945.067C808.936 935.672 810.913 926.543 811.99 915.815C840.506 914.793 870.153 911.129 896.691 900.004Z"
     id="path23"
     style="fill:#f6dcbf;fill-opacity:1" />
  <path
     fill="#F0B5B0"
     d="M876.404 783.329C895.007 793.853 925.917 802.255 940.1 817.284C926.802 820.815 913.527 824.872 903.427 834.675C900.164 838.365 898.158 842.421 896.028 846.821C887.801 838.848 879.009 832.086 869.829 825.291C863.457 820.574 856.678 815.963 851.001 810.417C856.259 796.958 864.503 790.733 876.404 783.329Z"
     id="path24"
     style="fill:#f2a8ad;fill-opacity:1" />
  <path
     fill="#F0B5B0"
     d="M629.479 448.415C631.67 448.663 633.769 450.229 635.619 451.347C632.236 458.379 628.339 465.223 624.651 472.101C621.825 477.371 619.138 483.173 615.65 488.029C605.765 501.796 553.512 513.867 536.121 516.827L530.495 517.703C538.404 501.083 547.748 484.937 556.446 468.706C563.013 467.416 569.704 466.644 576.297 465.445C594.768 462.086 612.68 456.906 629.479 448.415Z"
     id="path25"
     style="fill:#f2a8ad;fill-opacity:1" />
  <path
     fill="#9D8477"
     d="M365.955 147.724L366.056 147.844C366.182 149.388 363.076 152.91 362.04 154.364C353.517 166.334 343.612 178.189 333.389 188.75C324.424 198.012 314.813 206.712 306.387 216.479C298.846 225.219 292.008 234.351 286.424 244.487C276.146 263.144 274.568 273.802 272.219 294.375L271.877 294.254L270.989 292.08C269.391 287.628 268.403 282.959 267.75 278.282C263.404 247.186 271.955 216.823 291.044 191.892C306.486 171.724 323.091 159.841 347.505 152.268C353.501 150.408 359.725 148.549 365.955 147.724Z"
     id="path26" />
  <path
     fill="#F0B5B0"
     d="M655.799 733.712C669.365 732.64 685.156 733.599 698.337 736.861Q696.736 737.585 695.149 738.339C664.023 753.176 643.242 783.022 631.967 814.709C630.442 819.086 629.418 823.658 628.272 828.146C618.55 818.978 612.384 809.76 607.253 797.344C600.883 781.927 596.726 760.966 603.41 744.986C619.527 737.255 638.157 735.007 655.799 733.712Z"
     id="path27"
     style="fill:#f2a8ad;fill-opacity:1" />
  <path
     fill="#9D8477"
     d="M701.709 272.595C705.137 272.321 708.375 272.301 711.806 272.53C711.981 276.954 711.695 281.383 711.493 285.803C706.971 285.972 702.661 286.47 698.291 287.691C677.488 293.504 659.396 312.412 649.223 330.834C637.767 351.58 631.162 376.155 637.974 399.486C642.159 413.821 650.321 426.05 663.686 433.188C679.368 441.563 696.936 440.456 713.472 435.421C709.488 438.103 705.101 440.098 700.709 442.001C697.108 443.551 693.253 444.777 689.445 445.698C673.217 449.624 655.886 447.752 641.586 438.819C627.903 430.272 618.328 417.294 614.815 401.517C608.866 374.8 618.362 345.814 632.798 323.426C648.012 299.831 673.787 278.642 701.709 272.595Z"
     id="path28" />
  <path
     fill="#9D8477"
     d="M706.512 293.533C707.678 293.393 708.571 293.369 709.729 293.573C710.336 296.673 707.94 306.148 707.35 309.917C704.355 311.477 701.531 313.308 698.798 315.291Q698 315.868 697.217 316.465Q696.434 317.062 695.666 317.678Q694.898 318.294 694.146 318.929Q693.393 319.564 692.657 320.218Q691.921 320.872 691.201 321.544Q690.481 322.216 689.779 322.905Q689.076 323.595 688.391 324.302Q687.706 325.009 687.038 325.733Q686.371 326.457 685.722 327.197Q685.073 327.938 684.442 328.694Q683.812 329.45 683.201 330.222Q682.589 330.994 681.997 331.781Q681.406 332.568 680.834 333.369Q680.262 334.171 679.71 334.986Q679.158 335.802 678.627 336.631Q678.095 337.46 677.585 338.302Q677.075 339.144 676.586 339.998Q676.096 340.853 675.629 341.719Q675.161 342.585 674.715 343.463Q674.269 344.341 673.845 345.23Q673.422 346.119 673.02 347.018Q672.619 347.917 672.24 348.825Q671.861 349.734 671.505 350.652Q671.148 351.57 670.815 352.497Q670.482 353.423 670.172 354.358Q669.863 355.292 669.576 356.234Q669.29 357.176 669.027 358.125Q668.764 359.074 668.525 360.029Q668.286 360.985 668.071 361.945Q667.856 362.906 667.665 363.872Q667.474 364.838 667.307 365.808Q667.141 366.779 666.998 367.753C664.998 381.103 666.059 396.468 674.394 407.651C678.877 413.668 684.89 418.126 692.527 419.06C702.777 420.313 712.943 415.547 720.736 409.247C737.043 396.063 747.894 374.383 749.886 353.621C751.1 340.967 749.22 326.493 740.838 316.406C742.588 311.31 743.869 304.249 746.818 299.845L747.57 299.966C752.013 305.704 754.401 314.147 756.55 321.029C762.754 344.783 759.807 371.786 748.743 393.724C740.372 410.323 726.836 422.835 708.969 428.676C696.935 432.61 682.864 432.819 671.402 426.988Q670.432 426.497 669.488 425.957Q668.543 425.418 667.627 424.832Q666.711 424.246 665.826 423.615Q664.94 422.984 664.087 422.309Q663.234 421.634 662.417 420.918Q661.599 420.201 660.818 419.444Q660.037 418.688 659.295 417.893Q658.553 417.098 657.852 416.266Q657.15 415.435 656.492 414.57Q655.833 413.705 655.219 412.807Q654.604 411.91 654.035 410.983Q653.467 410.056 652.945 409.102Q652.424 408.148 651.951 407.169Q651.478 406.19 651.054 405.188Q650.631 404.186 650.258 403.165Q649.886 402.143 649.565 401.104C642.872 379.848 649.49 354.659 659.554 335.583C669.341 317.034 686.047 299.792 706.512 293.533Z"
     id="path29"
     style="fill:#70404a;fill-opacity:1" />
  <path
     fill="#9D8477"
     d="M719.856 316.178C719.948 316.163 720.039 316.14 720.132 316.132C724.583 315.76 729.146 315.612 732.885 318.461C738.785 322.957 740.977 333.835 741.802 340.834C743.934 358.926 738.137 379.27 726.741 393.482C719.226 402.854 710.795 409.453 698.624 410.762C694.104 411.322 689.531 410.489 685.835 407.714C680.051 403.369 677.629 395.691 676.725 388.787C674.168 369.245 681.339 348.584 693.194 333.155C700.272 323.943 708.141 317.705 719.856 316.178Z"
     id="path30"
     style="fill:#70404a;fill-opacity:1" />
  <path
     fill="#F0B5B0"
     d="M706.064 739.969C706.65 739.967 707.165 739.967 707.744 740.074C730.39 744.283 757.383 762.126 770.501 780.909C762.544 779.662 754.648 780.217 746.692 781.206C720.298 784.488 700.055 794.079 678.731 809.232C670.189 815.889 662.366 822.819 655.095 830.868C648.167 828.143 641.346 828.554 634.039 828.504C635.368 822.644 636.935 817.025 639.184 811.438C651.9 779.849 674.239 753.499 706.064 739.969Z"
     id="path31"
     style="fill:#f2a8ad;fill-opacity:1" />
  <path
     fill="#F0B5B0"
     d="M544.9 602.986L545.385 603.407C544.139 608.209 538.427 616.355 535.875 621.117C532.302 627.783 528.948 634.712 525.916 641.644C520.225 654.657 517.782 668.108 513.65 681.56C502.071 685.547 490.529 689.438 478.596 692.255C466.401 695.134 454.004 696.874 441.62 698.709C441.563 698.642 441.484 698.588 441.447 698.507C440.5 696.433 443.708 689.151 444.489 686.895Q450.504 669.295 457.833 652.201Q465.161 635.106 473.76 618.614C497.672 617.173 522.689 612.031 544.9 602.986Z"
     id="path32"
     style="fill:#f2a8ad;fill-opacity:1" />
  <path
     fill="#FEFDFB"
     d="M338.249 892.771C341.714 893.281 345.743 895.323 349.088 896.536C354.604 898.535 360.107 900.319 365.792 901.774Q368.965 902.613 372.17 903.323Q375.375 904.032 378.606 904.611Q381.837 905.19 385.089 905.638Q388.34 906.085 391.608 906.401Q394.875 906.716 398.152 906.899Q401.43 907.081 404.712 907.131Q407.994 907.18 411.275 907.097Q414.556 907.013 417.832 906.797Q421.107 906.58 424.371 906.231Q427.634 905.882 430.881 905.401Q434.128 904.919 437.353 904.307Q440.578 903.694 443.775 902.952Q446.972 902.209 450.137 901.337Q453.302 900.465 456.428 899.466Q459.555 898.466 462.638 897.341Q465.722 896.215 468.757 894.966C483.097 910.197 501.517 922.193 520.263 931.257C526.889 934.46 533.769 937.093 540.386 940.318C540.174 941.454 538.975 941.916 538.052 942.575C527.27 948.816 505.674 957.495 492.998 957.199C488.452 957.093 483.164 955.271 478.674 954.301C443.578 946.716 410.298 934.607 377.739 919.656C370.345 916.26 362.323 913.174 355.387 908.964C349.013 905.095 343.398 898.184 338.249 892.771Z"
     id="path33"
     style="fill:#f6dcbf;fill-opacity:1" />
  <path
     fill="#F0B5B0"
     d="M607.398 501.592L607.61 501.699C607.375 504.133 559.014 583.454 553.248 591.004C542.836 604.637 495.567 609.694 478.104 612L477.622 611.282C486.409 592.393 497.663 574.432 508.036 556.385C514.09 545.855 519.388 534.744 526.119 524.634C542.858 521.511 559.305 519.019 575.633 513.954C586.465 510.593 596.924 505.922 607.398 501.592Z"
     id="path34"
     style="fill:#f2a8ad;fill-opacity:1" />
  <path
     fill="#F0B5B0"
     d="M662.529 836.777C681.71 839.104 708.974 854.555 723.648 866.424C742.118 881.364 757.543 901.829 760.102 926.033C751.824 931.316 742.975 935.138 733.871 938.721Q725.662 941.562 717.267 943.796Q708.872 946.03 700.337 947.644Q691.801 949.259 683.17 950.246Q674.54 951.232 665.86 951.586C671.163 940.54 675.971 929.502 678.268 917.383C683.587 889.326 678.612 860.477 662.529 836.777Z"
     id="path35"
     style="fill:#f2a8ad;fill-opacity:1" />
  <path
     fill="#F0B5B0"
     d="M511.719 687.406L512.573 687.435C513.532 689.909 512.041 704.787 512.168 709.21C512.551 722.588 514.816 734.948 517.948 747.889C513.733 751.612 509.859 755.702 505.566 759.365C484.804 777.077 463.049 788.612 437.068 796.779L432.325 798.212C426.996 769.382 429.823 732.605 439.398 704.936C463.847 700.498 488.934 698.065 511.719 687.406Z"
     id="path36"
     style="fill:#f2a8ad;fill-opacity:1" />
  <path
     fill="#FEFDFB"
     d="M422.261 457.845C425.873 457.981 430.473 459.869 434.019 460.808C441.371 462.755 448.772 464.646 456.256 466.017C486.959 471.637 515.938 472.029 546.904 469.902C538.501 485.481 529.346 503.841 519.77 518.506C518.292 519.483 516.126 519.441 514.382 519.611C511.865 519.727 509.341 520.085 506.836 520.347C474.531 523.735 439.688 522.514 409.672 508.973C403.161 506.035 396.906 502.835 391.34 498.326C395.26 491.798 400.178 485.726 404.777 479.666C410.396 472.26 415.905 464.643 422.261 457.845Z"
     id="path37"
     style="fill:#f6dcbf;fill-opacity:1" />
  <path
     fill="#FEFDFB"
     d="M552.804 77.2163C552.936 77.2061 553.069 77.1933 553.201 77.1858C585.351 75.3641 622.665 86.9122 649.751 103.971C657.652 108.946 664.974 114.943 671.835 121.268C681.379 130.066 690.485 140.407 697.147 151.601C708.666 170.954 714.985 196.653 715.834 219.013C716.082 225.565 716.31 258.109 713.262 261.395C712.699 261.324 712.376 261.303 711.803 261.135C711.052 260.916 710.157 260.481 709.792 259.792C707.722 255.878 706.664 250.485 705.268 246.208Q701.606 234.762 696.961 223.679C681.758 186.069 656.225 150.762 624.106 125.792C593.781 102.216 560.79 91.4109 522.617 89.6494C513.412 89.2247 503.72 88.9117 494.568 90.0565C513.706 82.6633 532.294 78.2298 552.804 77.2163Z"
     id="path38" />
  <path
     fill="#F0B5B0"
     d="M558.03 811.014C572.212 822.353 587.506 830.233 604.565 836.283Q604.501 839.528 604.115 842.75C599.588 879.1 578.89 913.156 550.402 935.575Q541.263 931.973 532.376 927.789C511.276 918.154 494.343 906.364 476.939 891.118C503.901 878.91 529.684 856.941 546.163 832.472C550.757 825.652 554.352 818.348 558.03 811.014Z"
     id="path39"
     style="fill:#f2a8ad;fill-opacity:1" />
  <path
     fill="#F0B5B0"
     d="M766.889 786.212C769.271 786.029 771.703 786.077 774.094 786.031C785.869 802.91 793.546 824.684 795.225 845.113C797.586 873.846 784.38 900.162 766.294 921.574C763.252 903.969 755.404 890.631 743.926 877.208C723.693 854.112 698.214 840.927 669.404 831.671C696.949 804.824 727.964 788.525 766.889 786.212Z"
     id="path40"
     style="fill:#f2a8ad;fill-opacity:1" />
  <path
     fill="#F0B5B0"
     d="M518.824 754.932C521.496 758.386 523.233 764.358 525.163 768.422C532.48 783.831 540.865 796.22 553.622 807.71C546.677 822.216 537.456 834.886 526.689 846.756C513.357 861.454 498.232 873.043 480.739 882.439C478.385 883.704 475.045 886.09 472.34 886.019C471.531 885.998 471.14 885.245 470.613 884.7C451.734 861.47 437.272 832.777 432.89 802.973C455.107 797.765 478.01 787.978 496.371 774.382C504.333 768.487 511.615 761.708 518.824 754.932Z"
     id="path41"
     style="fill:#f2a8ad;fill-opacity:1" />
  <path
     fill="#F0B5B0"
     d="M610.526 837.53C626.354 841.535 640.411 842.776 656.514 839.378C663.069 847.611 667.659 857.492 670.306 867.644C678.002 897.157 673.158 925.859 657.96 952.046C646.962 953.016 635.6 952.037 624.619 951.132C601.943 949.041 578.691 944.912 557.057 937.704Q560.88 934.883 564.422 931.717C589.437 909.398 608.653 871.153 610.526 837.53Z"
     id="path42"
     style="fill:#f2a8ad;fill-opacity:1" />
  <path
     fill="#9D8477"
     d="M548.013 50.2108C574.97 47.7022 605.467 55.4678 630.432 64.923C672.129 80.7151 716.947 111.198 735.63 152.996C753.094 192.068 749.403 233.132 742.093 273.996C739.943 286.015 737.949 299.199 733.615 310.642C727.403 307.836 722.567 307.098 715.803 308.089C719.32 296.54 721.592 284.739 723.116 272.768C728.913 227.241 727.729 173.744 698.393 135.841C695.537 131.969 692.305 128.221 689.102 124.629C660.01 92.0074 614.737 69.937 570.932 67.5295Q564.447 67.1726 557.952 67.2599Q551.457 67.3472 544.984 67.8783Q538.51 68.4095 532.089 69.3819Q525.667 70.3544 519.326 71.7636C501.798 75.7361 485.313 83.2692 468.796 90.1478C434.4 104.473 411.903 111.539 383.255 137.269L383.068 137.075C383.374 136.649 383.694 136.234 384.035 135.835C390.291 128.512 398.755 122.007 406.1 115.799Q412.932 109.922 420.08 104.436Q427.229 98.9496 434.672 93.8704Q442.116 88.7912 449.831 84.135Q457.546 79.4789 465.509 75.2602C470.119 72.8088 474.732 70.1542 479.537 68.1159C489.006 64.0996 499 61.2921 508.835 58.3347C521.907 54.4037 534.295 51.1263 548.013 50.2108Z"
     id="path43" />
  <path
     fill="#FEFDFB"
     d="M298.225 790.149C305.849 792.742 312.957 797.745 320.632 800.608C355.7 813.686 388.012 814.471 424.23 806.483C430.91 837.528 442.909 865.111 463.509 889.564L459.835 891.03C423.944 904.815 387.246 902.514 351.283 890.424C344.397 888.11 338.088 884.326 331.247 881.883L330.576 881.646C313.556 853.887 303.431 822.181 298.225 790.149Z"
     id="path44"
     style="fill:#f6dcbf;fill-opacity:1" />
  <path
     fill="#FEFDFB"
     d="M337.444 587.387C369.805 614.882 422.336 622.441 463.542 619.975C459.088 627.329 455.666 635.047 452.123 642.861C443.801 661.218 436.978 679.633 431.063 698.885C431.028 698.96 431.007 699.045 430.956 699.11C430.369 699.872 430.264 699.901 429.272 700.084C424.743 700.919 419.623 700.706 415.01 700.834C388.749 701.562 361.043 698.197 336.864 687.501C325.921 682.659 316.844 676.302 307.096 669.565C312.468 643.593 324.779 610.486 337.444 587.387Z"
     id="path45"
     style="fill:#f6dcbf;fill-opacity:1" />
  <path
     fill="#FEFDFB"
     d="M387.427 504.482C423.445 530.262 473.789 531.357 516.102 525.749C499.005 553.314 484.082 582.307 467.938 610.426C467.923 610.453 467.91 610.482 467.891 610.508C466.767 612.078 466.446 612.303 464.575 612.669C456.788 614.195 447.2 613.681 439.25 613.355C403.276 611.881 370.375 602.357 340.447 582.018C346.438 568.976 353.74 556.474 361.14 544.196C369.444 530.417 377.711 517.317 387.427 504.482Z"
     id="path46"
     style="fill:#f6dcbf;fill-opacity:1" />
  <path
     fill="#FEFDFB"
     d="M305.077 675.919C309.777 679.39 314.396 683.13 319.429 686.11C353.137 706.068 390.657 707.88 428.701 706.45C422.986 729.393 419.938 751.583 420.56 775.271C420.778 783.582 423.112 792.081 422.713 800.339C421.586 801.511 419.687 801.59 418.151 801.892Q417.066 802.139 415.974 802.358C376.038 810.461 331.878 804.075 297.621 781.399C292.913 746.22 298.549 710.45 305.077 675.919Z"
     id="path47"
     style="fill:#f6dcbf;fill-opacity:1" />
  <path
     fill="#F0B5B0"
     d="M505.373 101.718C529.784 100.386 556.471 105.252 578.972 114.716C624.95 134.053 659.113 175.624 680.346 219.696C686.703 232.893 691.516 246.754 697.04 260.309C674.975 264.864 656.232 273.145 639.632 288.646C615.012 311.634 597.084 345.49 595.961 379.611C595.185 403.179 602.559 423.546 618.754 440.763C612.175 444.015 604.77 446.137 597.707 448.115Q591.743 449.742 585.72 451.129Q579.696 452.516 573.622 453.661Q567.547 454.806 561.432 455.707Q555.317 456.608 549.17 457.264Q543.024 457.92 536.856 458.33Q530.688 458.74 524.509 458.903Q518.33 459.066 512.149 458.982Q505.968 458.897 499.796 458.566C441.388 457.664 372.498 432.65 328.492 393.93C302.585 371.136 285.634 342.071 283.542 307.174C281.505 273.214 297.118 244.952 319.507 220.786C326.316 213.437 333.765 206.695 340.677 199.444C349.312 190.384 356.902 180.477 365.178 171.107C374.052 161.06 383.867 152.666 394.352 144.344C429.648 116.332 460.061 104.562 505.373 101.718Z"
     id="path48"
     style="fill:#f2a8ad;fill-opacity:1" />
  <path
     fill="#6F313E"
     d="M456.382 130.998C458.777 131.342 462.337 132.173 463.87 134.309C464.593 135.316 464.937 136.424 464.622 137.654C463.62 141.565 458.64 145.256 455.405 147.472C443.052 155.934 426.867 158.244 412.339 155.614C409.873 154.854 405.768 153.543 404.217 151.281C403.405 150.097 403.475 149.801 403.72 148.487C404.909 147.007 406.034 146.447 407.829 145.936C416.116 143.573 425.946 144.251 435.475 141.256C443.068 138.87 449.704 135.276 456.382 130.998Z"
     id="path50" />
  <path
     fill="#6F313E"
     d="M576.562 159.869C577.534 159.844 578.583 159.788 579.526 160.082C580.919 160.517 581.628 161.169 582.413 162.386C584.217 165.179 584.741 169.967 585.762 173.168C587.445 178.442 590.306 183.575 593.539 188.049C596.718 192.448 600.068 195.853 604.389 199.142C608.238 202.073 621.12 208.637 622.9 211.893C622.942 212.582 623.113 213.101 622.76 213.731C621.758 215.52 619.598 215.915 617.78 216.424C616.285 216.496 614.818 216.499 613.33 216.313C601.736 214.865 589.758 206.623 582.629 197.626C576.627 190.053 570.02 178.286 571.402 168.224C571.932 164.357 573.516 162.188 576.562 159.869Z"
     id="path51" />
  <path
     fill="#4f2c30"
     d="m 474.62812,390.88119 c -4.766,-1.832 -8.4195,-5.299 -12.734,-7.8995 -11.6175,-7.003 -25.9705,-10.22 -39.424,-10.3155 -3.205,-0.0225 -6.48,0.063 -9.668,0.407 -3.7175,0.401 -9.2885,2.424 -12.803,1.558 -1.341,-0.3305 -1.4585,-0.465 -2.0665,-1.589 -0.0125,-10.078 9.3305,-27.4385 15.371,-35.5695 6.1395,-6.3715 12.2005,-13.544 20.585,-16.989 4.225,-1.7365 8.5025,-2.131 12.7545,-0.2645 9.3505,4.106 17.735,17.8855 21.4295,27.0395 3.398,8.4195 10.236,35.045 6.5555,43.6225 z"
     id="path61"
     style="display:block;stroke-width:0.5" />
  <path
     fill="#c88181"
     d="m 434.79102,344.38414 c 6.15968,-0.64566 12.00998,0.84233 17.31985,3.79161 4.32177,2.40044 9.22073,6.10057 10.4127,10.95328 0.47406,1.93163 0.25182,3.9959 -0.91936,5.66988 -2.26561,3.23895 -6.66013,4.3557 -10.4071,5.19422 -7.59387,0.85071 -15.48913,-0.15094 -21.82308,-4.47614 -3.40482,-2.32574 -6.36914,-5.84521 -6.96792,-9.89523 -0.34695,-2.34403 0.17748,-4.63623 1.73719,-6.50306 2.65493,-3.17721 6.64094,-4.19029 10.64772,-4.73456 z"
     id="path53"
     style="stroke-width:0.780641" />
  <path
     fill="#6F313E"
     d="M409.769 163.174C415.601 162.193 422.979 162.867 428.714 164.209C436.522 166.036 443.663 169.82 447.883 176.911C455.512 189.729 453.207 208.63 449.861 222.397C444.109 246.061 432.244 266.11 411.195 278.928C421.805 277.773 432.936 278.77 442.657 283.326C448.193 285.92 456.55 290.832 458.367 297.035C458.713 298.216 458.758 298.763 458.082 299.829C454.644 300.106 445.891 292.43 441.952 290.487C437.684 288.382 433.007 287.102 428.448 285.806C420.226 284.478 412.24 284.309 403.938 285.045C398.316 285.543 392.779 286.744 387.167 287.291C372.746 288.696 357.735 285.45 345.954 276.763C336.52 269.806 328.663 259.201 327.022 247.386C325.125 233.726 331.579 220.228 339.646 209.622C354.561 190.012 385.045 166.535 409.769 163.174Z"
     id="path54" />
  <path
     fill="#FEFDFB"
     d="M414.874 170.214C418.181 170.034 421.519 170.048 424.813 170.432C429.358 170.961 433.416 172.991 436.224 176.645C443.678 186.34 441.756 200.872 440.211 212.13C436.625 209.819 433.952 208.565 429.526 208.724C421.641 209.006 414.493 214.194 409.215 219.686C400.194 229.075 394.625 241.817 394.978 254.923C395.206 263.412 398.061 269.402 404.167 275.246C393.609 279.506 384.741 280.887 373.379 280.457C364.538 278.982 355.905 275.472 348.902 269.81C341.319 263.679 334.828 254.438 333.948 244.513C332.821 231.806 340.009 220.14 347.878 210.823C364.143 191.566 389.055 172.501 414.874 170.214Z"
     id="path55" />
  <path
     fill="#6F313E"
     d="M543.269 199.669C546.661 199.347 550.153 199.242 553.55 199.543C568.219 200.843 581.722 209.182 590.981 220.376C605.834 238.332 612.223 264.537 610.008 287.488C608.161 306.627 601.599 326.181 586.314 338.693C574.842 348.084 560.603 351.367 546.048 349.852C530.771 347.733 517.515 341.983 505.023 332.927C491.666 323.243 481.225 310.221 478.649 293.629C475.118 270.884 484.182 245.35 497.684 227.238C509.02 212.032 524.467 202.331 543.269 199.669Z"
     id="path56" />
  <path
     fill="#FEFDFB"
     d="M542.317 207.179C551.883 205.563 562.724 208.836 570.545 214.295C589.194 227.312 595.119 249.249 599.018 270.383C598.02 269.493 597.005 268.647 595.856 267.955C591.588 265.381 586.324 264.203 581.441 265.458C573.28 267.555 566.203 274.683 561.919 281.677C555.842 291.598 553.569 305.134 556.319 316.474C558.756 326.522 564.448 332.255 573.143 337.501C570.103 339.578 567.096 340.847 563.607 341.901Q561.342 342.439 559.034 342.746C541.436 345.103 521.981 337.054 508.184 326.441C496.757 317.653 487.332 305.853 485.478 291.166C482.825 270.149 492.041 246.391 504.751 229.973C513.981 218.051 527.151 209.048 542.317 207.179Z"
     id="path57" />
  <path
     fill="#d66f88"
     d="m 319.97255,279.28847 c 5.8205,-0.323 10.825,0.7675 15.83,3.811 4.375,2.6595 8.7625,6.935 9.9265,12.1 0.5025,2.2305 0.2555,4.5475 -1.1265,6.425 -2.3675,3.2165 -6.184,3.9025 -9.852,4.5315 -6.408,0.175 -12.486,-0.2485 -18.193,-3.5035 -4.025,-2.2955 -7.8365,-6.02 -8.8805,-10.6865 -0.5315,-2.375 -0.216,-4.615 1.1585,-6.6455 2.3855,-3.5245 7.118,-5.3695 11.137,-6.032 z"
     id="path60"
     style="display:block;stroke-width:0.5" />
  <path
     fill="#d66f88"
     d="m 552.87266,362.10406 c 5.035,0.1175 10.085,0.6995 13.97,4.2965 1.975,1.8295 3.22,4.287 3.29,7.001 0.065,2.7105 -1.16,5.3465 -3.015,7.276 -4.32,4.491 -10.545,5.114 -16.415,5.374 -4.345,-0.138 -9.785,-1.469 -13.31,-4.1205 -2.105,-1.5865 -3.68,-3.876 -3.96,-6.542 -0.245,-2.271 0.625,-4.5085 2.03,-6.2635 4.22,-5.2725 11.09,-6.4585 17.41,-7.0215 z"
     id="path59"
     style="display:block;stroke-width:0.5" />
</svg>
