<?xml version="1.0" encoding="UTF-8" standalone="no"?>
<svg xmlns="http://www.w3.org/2000/svg" width="300" height="300" viewBox="0 0 300 300">
  <!-- Placeholder for QT mascot - will be replaced with actual mascot design -->
  <circle cx="150" cy="150" r="100" fill="#FF69B4" />
  <circle cx="120" cy="120" r="15" fill="white" />
  <circle cx="180" cy="120" r="15" fill="white" />
  <circle cx="120" cy="120" r="5" fill="black" />
  <circle cx="180" cy="120" r="5" fill="black" />
  <path d="M 120 170 Q 150 200 180 170" stroke="black" stroke-width="5" fill="none" />
  <!-- Headphones -->
  <path d="M 90 100 Q 60 100 60 150 L 60 180 Q 60 190 70 190 L 80 190 Q 90 190 90 180 L 90 100" fill="#444" />
  <path d="M 210 100 Q 240 100 240 150 L 240 180 Q 240 190 230 190 L 220 190 Q 210 190 210 180 L 210 100" fill="#444" />
  <path d="M 90 100 C 90 50 210 50 210 100" stroke="#444" stroke-width="10" fill="none" />
</svg> 